<svg xmlns="http://www.w3.org/2000/svg" viewBox="0 0 32 32" fill="none">
  <!-- Owl Head/Body -->
  <path d="M16 4C8 4 6 9 6 15c0 6 3 9 10 9s10-3 10-9c0-6-2-11-10-11z" fill="url(#owlGrad)" />
  
  <!-- Belly / Chest patch -->
  <path d="M16 14c-4 0-5 3-5 5c0 3 2 4 5 4s5-1 5-4c0-2-1-5-5-5z" fill="#FFFBEB" />
  
  <!-- Eyes -->
  <circle cx="12" cy="11" r="4" fill="#FFFFFF" />
  <circle cx="20" cy="11" r="4" fill="#FFFFFF" />
  
  <!-- Pupils -->
  <circle cx="12" cy="11" r="2.2" fill="#1E1B4B" />
  <circle cx="11.2" cy="10.2" r="0.8" fill="#FFFFFF" />
  <circle cx="20" cy="11" r="2.2" fill="#1E1B4B" />
  <circle cx="19.2" cy="10.2" r="0.8" fill="#FFFFFF" />
  
  <!-- Beak -->
  <path d="M16 11.5l-1.2 1.8c.3.8 2.1.8 2.4 0l-1.2-1.8z" fill="#F59E0B" />
  
  <!-- Graduation Cap -->
  <path d="M7 6l9-3 9 3-9 3-9-3z" fill="#1E1B4B" />
  <path d="M12 6.5v1.5c0 1 8 1 8 0v-1.5z" fill="#312E81" />
  
  <!-- Tassel -->
  <path d="M9 6v3" stroke="#FBBF24" stroke-width="0.8" />
  <circle cx="9" cy="9.5" r="0.6" fill="#FBBF24" />

  <defs>
    <linearGradient id="owlGrad" x1="16" y1="4" x2="16" y2="24" gradientUnits="userSpaceOnUse">
      <stop offset="0%" stopColor="#818CF8" />
      <stop offset="100%" stopColor="#4F46E5" />
    </linearGradient>
  </defs>
</svg>
